# xmcd CD Database Entry
#
# Track frame offsets:
# 150
# 3997
# 21837
# 39402
# 55799
# 74180
# 90656
# 108969
# 125225
# 141649
# 159174
# 177822
# 192267
# 212031
#
# Disc length: 3079 seconds
#
# Revision: 2
# Processed by: cddbd v1.4PL0 Copyright (c) Steve Scherf et al.
# Submitted via: tcd 2.0b
#
DISCID=c60c050e
DTITLE=Multicyde - Multiplicity
DYEAR=1900
DGENRE=
TTITLE0=Intro
TTITLE1=Playgirl
TTITLE2=Catch Us
TTITLE3=Still Clappin'
TTITLE4=A Better Day
TTITLE5=Whatever You Say
TTITLE6=Shorty
TTITLE7=The Banger (La La)
TTITLE8=Bump
TTITLE9=Another Day
TTITLE10=Show Love
TTITLE11=Since The Last Time
TTITLE12=Sunday Afternoon
TTITLE13=Multiplicity
EXTD=
EXTT0=
EXTT1=
EXTT2=
EXTT3=
EXTT4=
EXTT5=
EXTT6=
EXTT7=
EXTT8=
EXTT9=
EXTT10=
EXTT11=
EXTT12=
EXTT13=
PLAYORDER=
